<svg version="1.1" id="Layer_1" xmlns="http://www.w3.org/2000/svg" xmlns:xlink="http://www.w3.org/1999/xlink" x="0px" y="0px"
	 width="100%" viewBox="0 0 744 1052" enable-background="new 0 0 744 1052" xml:space="preserve">
<path fill="#000000" opacity="1.000000" stroke="none" 
	d="
M371.000000,1053.000000 
	C247.333344,1053.000000 124.166679,1053.000000 1.000016,1053.000000 
	C1.000011,702.333374 1.000011,351.666718 1.000005,1.000064 
	C248.999954,1.000042 496.999908,1.000042 744.999878,1.000021 
	C744.999939,351.666595 744.999939,702.333191 745.000000,1052.999878 
	C620.500000,1053.000000 496.000000,1053.000000 371.000000,1053.000000 
M173.535751,235.108521 
	C165.604095,245.222595 162.332230,256.081879 168.311859,267.774078 
	C161.596680,273.945679 154.935913,279.470123 148.977982,285.669952 
	C137.337738,297.782867 131.220337,312.560333 131.128494,329.298065 
	C131.018692,349.313660 138.775726,366.959229 150.627472,382.570984 
	C155.474915,388.956299 158.215286,394.530731 157.296631,402.940491 
	C155.875839,415.946808 156.342285,429.159912 156.023727,442.285736 
	C155.676910,456.576355 155.356186,470.867584 155.008041,485.158173 
	C154.688263,498.283783 154.333893,511.408508 154.018982,524.534180 
	C153.668182,539.157166 153.351517,553.781067 153.007370,568.404175 
	C152.686722,582.028625 152.334976,595.652344 152.023468,609.276917 
	C151.670059,624.734131 151.350998,640.192078 151.008041,655.649475 
	C150.683578,670.273621 150.323318,684.897034 150.022720,699.521606 
	C149.660492,717.145630 149.254608,734.769470 149.038879,752.395508 
	C148.883896,765.057983 148.754044,777.730286 149.067276,790.386902 
	C149.597519,811.812927 158.713882,828.086182 178.222702,838.135498 
	C195.260300,846.911926 213.777832,850.023438 232.403030,851.747986 
	C253.197739,853.673340 274.135162,854.197571 295.025177,854.887085 
	C303.798096,855.176575 312.612427,853.966980 321.401398,854.059753 
	C346.508057,854.324707 371.494507,852.908752 396.277802,848.912842 
	C411.366974,846.479980 426.284943,843.121460 440.001099,835.966431 
	C454.410278,828.449829 464.956146,817.555603 467.353241,800.925781 
	C468.719818,791.444946 468.433350,781.731323 469.007538,772.129395 
	C469.610535,762.045532 469.807922,751.895447 471.173553,741.909851 
	C472.822235,729.854675 479.131439,725.255859 491.182861,724.927063 
	C506.106476,724.519897 521.079285,724.267334 535.914124,722.782043 
	C547.395691,721.632629 558.858704,719.430603 568.907166,712.737610 
	C582.696960,703.552673 590.758667,689.980835 596.611572,675.293579 
	C609.148010,643.834900 613.217163,610.592407 614.875305,577.043274 
	C615.308044,568.289551 614.239380,559.468384 614.019592,550.674194 
	C613.580383,533.096008 610.395508,516.005493 603.953003,499.694824 
	C594.740967,476.372528 579.648499,458.763336 554.760742,451.018250 
	C540.926819,446.713135 526.888977,444.094757 512.447144,442.712494 
	C497.461365,441.278168 483.035126,442.654816 468.901642,447.561127 
	C463.746399,449.350739 463.035187,449.048309 463.003845,443.666595 
	C462.942749,433.169067 463.070862,422.669312 462.905731,412.173828 
	C462.735901,401.379425 462.346283,390.587769 461.970703,379.797791 
	C461.874634,377.038605 462.956482,376.153107 465.724945,375.882965 
	C469.132599,375.550446 472.619629,374.788208 475.792297,373.514252 
	C487.001862,369.013214 492.339508,359.766571 495.227936,348.639618 
	C499.692535,331.441162 496.703735,314.081635 481.043243,302.879669 
	C479.473938,301.757141 478.345459,299.199677 478.112823,297.181335 
	C477.430725,291.262726 477.601349,285.244873 476.900513,279.329590 
	C475.249268,265.392700 465.322754,254.621735 451.825623,250.824753 
	C449.166321,250.076660 446.359253,247.740646 444.856812,245.357437 
	C438.170624,234.751877 430.701904,224.996613 420.725250,217.156067 
	C406.410828,205.906479 390.078766,202.973343 373.230591,207.527222 
	C362.910065,210.316727 353.469360,216.597488 343.901215,221.802399 
	C340.696045,223.545959 339.464294,223.782166 336.639954,220.837570 
	C332.258148,216.269302 327.091095,211.941940 321.436829,209.209625 
	C308.333740,202.877838 295.154297,205.701340 282.504852,211.361374 
	C279.584351,212.668152 278.047119,212.303970 275.597687,210.345016 
	C271.791687,207.301147 267.568176,204.374680 263.037201,202.746780 
	C257.657684,200.814011 251.804611,199.673584 246.086624,199.318207 
	C234.261047,198.583221 222.679077,199.669769 214.137497,209.468277 
	C208.383362,216.069153 206.311325,217.764984 198.003418,219.454437 
	C188.028732,221.482849 180.498184,227.142380 173.535751,235.108521 
z"/>
<path fill="#43362B" opacity="1.000000" stroke="none" 
	d="
M173.766998,234.835281 
	C180.498184,227.142380 188.028732,221.482849 198.003418,219.454437 
	C206.311325,217.764984 208.383362,216.069153 214.137497,209.468277 
	C222.679077,199.669769 234.261047,198.583221 246.086624,199.318207 
	C251.804611,199.673584 257.657684,200.814011 263.037201,202.746780 
	C267.568176,204.374680 271.791687,207.301147 275.597687,210.345016 
	C278.047119,212.303970 279.584351,212.668152 282.504852,211.361374 
	C295.154297,205.701340 308.333740,202.877838 321.436829,209.209625 
	C327.091095,211.941940 332.258148,216.269302 336.639954,220.837570 
	C339.464294,223.782166 340.696045,223.545959 343.901215,221.802399 
	C353.469360,216.597488 362.910065,210.316727 373.230591,207.527222 
	C390.078766,202.973343 406.410828,205.906479 420.725250,217.156067 
	C430.701904,224.996613 438.170624,234.751877 444.856812,245.357437 
	C446.359253,247.740646 449.166321,250.076660 451.825623,250.824753 
	C465.322754,254.621735 475.249268,265.392700 476.900513,279.329590 
	C477.601349,285.244873 477.430725,291.262726 478.112823,297.181335 
	C478.345459,299.199677 479.473938,301.757141 481.043243,302.879669 
	C496.703735,314.081635 499.692535,331.441162 495.227936,348.639618 
	C492.339508,359.766571 487.001862,369.013214 475.792297,373.514252 
	C472.619629,374.788208 469.132599,375.550446 465.724945,375.882965 
	C462.956482,376.153107 461.874634,377.038605 461.970703,379.797791 
	C462.346283,390.587769 462.735901,401.379425 462.905731,412.173828 
	C463.070862,422.669312 462.942749,433.169067 463.003845,443.666595 
	C463.035187,449.048309 463.746399,449.350739 468.901642,447.561127 
	C483.035126,442.654816 497.461365,441.278168 512.447144,442.712494 
	C526.888977,444.094757 540.926819,446.713135 554.760742,451.018250 
	C579.648499,458.763336 594.740967,476.372528 603.953003,499.694824 
	C610.395508,516.005493 613.580383,533.096008 614.019592,550.674194 
	C614.239380,559.468384 615.308044,568.289551 614.875305,577.043274 
	C613.217163,610.592407 609.148010,643.834900 596.611572,675.293579 
	C590.758667,689.980835 582.696960,703.552673 568.907166,712.737610 
	C558.858704,719.430603 547.395691,721.632629 535.914124,722.782043 
	C521.079285,724.267334 506.106476,724.519897 491.182861,724.927063 
	C479.131439,725.255859 472.822235,729.854675 471.173553,741.909851 
	C469.807922,751.895447 469.610535,762.045532 469.007538,772.129395 
	C468.433350,781.731323 468.719818,791.444946 467.353241,800.925781 
	C464.956146,817.555603 454.410278,828.449829 440.001099,835.966431 
	C426.284943,843.121460 411.366974,846.479980 396.277802,848.912842 
	C371.494507,852.908752 346.508057,854.324707 321.401398,854.059753 
	C312.612427,853.966980 303.798096,855.176575 295.025177,854.887085 
	C274.135162,854.197571 253.197739,853.673340 232.403030,851.747986 
	C213.777832,850.023438 195.260300,846.911926 178.222702,838.135498 
	C158.713882,828.086182 149.597519,811.812927 149.067276,790.386902 
	C148.754044,777.730286 148.883896,765.057983 149.038879,752.395508 
	C149.254608,734.769470 149.660492,717.145630 150.022720,699.521606 
	C150.323318,684.897034 150.683578,670.273621 151.008041,655.649475 
	C151.350998,640.192078 151.670059,624.734131 152.023468,609.276917 
	C152.334976,595.652344 152.686722,582.028625 153.007370,568.404175 
	C153.351517,553.781067 153.668182,539.157166 154.018982,524.534180 
	C154.333893,511.408508 154.688263,498.283783 155.008041,485.158173 
	C155.356186,470.867584 155.676910,456.576355 156.023727,442.285736 
	C156.342285,429.159912 155.875839,415.946808 157.296631,402.940491 
	C158.215286,394.530731 155.474915,388.956299 150.627472,382.570984 
	C138.775726,366.959229 131.018692,349.313660 131.128494,329.298065 
	C131.220337,312.560333 137.337738,297.782867 148.977982,285.669952 
	C154.935913,279.470123 161.596680,273.945679 168.311859,267.774078 
	C162.332230,256.081879 165.604095,245.222595 173.766998,234.835281 
M242.378876,389.256775 
	C254.955185,395.976227 268.559418,396.200134 282.265381,395.339050 
	C285.348206,395.145355 288.472412,394.173828 291.385590,393.058838 
	C295.576843,391.454681 297.031769,388.323151 295.735199,383.827606 
	C294.865723,380.812805 294.288177,377.678650 293.939484,374.557709 
	C293.491486,370.548309 295.330292,367.765869 299.331421,366.785736 
	C303.344391,365.802734 306.285797,367.549896 307.798096,371.169830 
	C309.132721,374.364471 310.276062,377.732971 310.849060,381.135010 
	C312.930756,393.494629 323.933960,402.488129 336.373291,401.696350 
	C343.198120,401.261963 345.941528,399.010376 344.845398,392.360535 
	C343.618896,384.919617 340.962280,377.687866 338.603882,370.470978 
	C337.356659,366.654297 337.670319,363.459686 341.015472,361.207275 
	C344.312988,358.986938 347.653809,359.466827 350.536194,362.294739 
	C351.486420,363.227020 352.495117,364.139587 353.258545,365.216156 
	C359.000519,373.312653 366.930267,374.458984 375.839020,372.318817 
	C379.222473,371.506012 382.519775,370.340088 385.882599,369.432220 
	C386.817047,369.179932 387.845306,369.275146 388.830505,369.210907 
	C389.046570,369.681976 389.262634,370.153015 389.478699,370.624084 
	C384.456482,374.095734 379.434265,377.567413 374.157623,381.214935 
	C391.690033,390.111603 408.672119,389.644775 425.057129,378.580322 
	C432.366455,373.644440 439.490631,368.421265 446.531799,363.107117 
	C450.115112,360.402679 453.573792,359.551270 458.107758,360.598267 
	C465.458710,362.295746 472.009888,360.451965 476.606232,353.912628 
	C489.987823,334.874207 479.875366,312.249023 456.801849,309.899841 
	C451.838226,309.394440 446.779236,309.826050 441.764160,309.826050 
	C441.647308,309.333923 441.530457,308.841797 441.413574,308.349670 
	C448.053955,306.148743 454.694336,303.947815 462.906952,301.225769 
	C462.460175,294.741974 462.671570,287.078278 461.237885,279.735779 
	C459.469696,270.680145 453.406219,265.410980 445.146027,265.231323 
	C439.614716,265.111023 436.677582,262.721222 434.327057,258.151978 
	C429.190826,248.167648 422.760803,239.094696 414.289886,231.587524 
	C392.024658,211.855576 353.282898,221.349869 342.676361,249.251999 
	C340.922241,253.866440 339.941376,258.774811 338.377075,264.353607 
	C337.776642,261.707123 337.271790,259.817993 336.925934,257.900177 
	C335.283142,248.790756 332.819366,239.808105 326.655975,232.801514 
	C322.843567,228.467545 317.934723,224.213486 312.653290,222.250961 
	C303.302551,218.776321 293.951355,220.631210 285.845551,226.955811 
	C281.741486,230.158020 277.643860,233.368530 272.255463,237.582428 
	C272.187317,224.641891 265.088776,219.225159 255.269028,216.818298 
	C249.992538,215.524979 244.443756,214.675415 239.031113,214.739975 
	C226.736588,214.886627 223.537048,218.603424 223.504669,230.786926 
	C223.489731,236.401596 223.372421,242.095520 219.193390,247.424637 
	C217.842896,245.099854 216.637848,243.182739 215.585800,241.185028 
	C212.355179,235.050507 207.653656,232.757996 200.843719,234.433075 
	C191.604111,236.705795 185.360321,242.804016 181.552002,251.174881 
	C178.218765,258.501495 183.210510,265.269287 191.221420,265.017883 
	C199.377014,264.761932 206.792145,266.996094 213.553055,271.864990 
	C207.791000,272.419250 201.909134,271.537903 196.395309,272.588409 
	C181.298645,275.464630 170.174500,285.214478 160.144470,296.028992 
	C149.555969,307.445679 144.663345,321.051025 146.844803,336.831970 
	C149.063675,352.883514 157.011780,366.132141 166.642059,378.711029 
	C170.492310,383.740112 175.395309,385.060089 181.102188,384.586304 
	C184.053009,384.341339 187.020462,383.589417 189.844559,382.655670 
	C198.871536,379.671082 202.343369,381.975067 202.367325,391.423279 
	C202.485626,438.079437 202.553619,484.735687 202.648941,531.391907 
	C202.658463,536.056763 202.568604,540.730164 202.815979,545.384155 
	C203.168045,552.007507 206.427856,555.653625 212.744843,557.486877 
	C216.592529,558.603577 219.361801,558.123901 220.118958,553.674988 
	C222.095413,542.061768 225.363205,530.476013 225.689362,518.811340 
	C226.564148,487.523865 226.307617,456.200378 226.206543,424.892181 
	C226.169464,413.405579 225.370331,401.918396 224.786224,390.438232 
	C224.580368,386.392609 225.442200,383.082977 229.600632,381.609680 
	C233.801117,380.121490 236.564438,382.144440 238.752533,385.590088 
	C239.535294,386.822754 240.734131,387.791199 242.378876,389.256775 
M452.293518,630.360962 
	C450.471832,547.666077 448.650116,464.971191 446.807037,381.305725 
	C441.392426,385.082672 436.852356,387.885864 432.790497,391.264038 
	C431.191254,392.594086 429.752350,395.216797 429.771973,397.235992 
	C430.889648,512.049805 432.160156,626.862122 433.445068,741.674255 
	C433.586731,754.335693 433.443298,767.026611 434.306976,779.643921 
	C434.836060,787.373718 432.810394,793.570312 426.970184,798.213684 
	C423.111816,801.281250 418.832825,804.445740 414.221649,805.818420 
	C402.313293,809.363281 390.267914,813.230835 378.007324,814.670044 
	C331.999603,820.070557 285.899261,819.764526 239.918213,813.927307 
	C225.881897,812.145447 211.980560,809.368591 199.459030,802.143555 
	C191.650452,797.637939 187.717468,791.437988 187.735626,781.843872 
	C187.973465,656.191345 187.927765,530.538269 187.953217,404.885376 
	C187.953613,402.938080 187.953278,400.990784 187.953278,399.145966 
	C182.582275,399.145966 177.805954,399.145966 172.916534,399.145966 
	C172.795319,400.737152 172.636765,402.047668 172.603897,403.361298 
	C171.394821,451.671265 170.153992,499.980438 169.010147,548.291992 
	C167.763748,600.935425 166.547577,653.579651 165.439087,706.226135 
	C164.860291,733.715271 164.372589,761.208618 164.164566,788.702454 
	C164.028442,806.692139 171.997360,820.258606 189.193390,826.253174 
	C201.810684,830.651550 215.055222,834.583679 228.269745,835.660034 
	C256.286774,837.941895 284.458435,838.705322 312.582275,839.190979 
	C341.582672,839.691772 370.549255,838.275940 399.165466,832.962097 
	C413.275818,830.341919 427.163849,826.895325 439.201874,818.486938 
	C447.950439,812.376221 452.794647,804.071411 453.110687,793.271973 
	C453.310486,786.444214 453.836517,779.616150 453.775208,772.792175 
	C453.351440,725.635132 452.811707,678.479004 452.293518,630.360962 
M256.247864,491.499969 
	C256.228241,584.150330 256.210114,676.800659 256.187286,769.450989 
	C256.184052,782.601013 249.914978,788.658630 236.692108,788.011902 
	C230.209488,787.694763 223.748917,786.940796 217.274963,786.427490 
	C212.629242,786.059021 207.977905,785.761475 203.329071,785.432251 
	C203.162827,785.976074 202.996597,786.519836 202.830353,787.063660 
	C206.570282,789.010193 210.109207,791.796997 214.087097,792.748596 
	C227.000351,795.837769 239.961136,799.276245 253.108353,800.734192 
	C288.955719,804.709412 324.947510,804.708435 360.899994,801.877808 
	C376.675873,800.635681 392.424713,798.737122 407.298889,792.858643 
	C411.428680,791.226562 415.148865,788.557861 419.056946,786.364746 
	C418.827362,785.916687 418.597748,785.468628 418.368164,785.020508 
	C406.310425,786.107849 394.244598,787.113220 382.197205,788.304871 
	C369.559937,789.554993 362.295135,783.062195 362.294128,770.187561 
	C362.285797,663.206604 362.292938,556.225647 362.309540,449.244659 
	C362.309906,446.748871 362.258453,444.222534 362.604340,441.762909 
	C363.697968,433.985321 370.167969,428.216248 378.022339,428.023651 
	C380.841217,427.954498 383.673065,428.305634 386.495483,428.513000 
	C395.887207,429.202972 405.277344,429.914795 414.991058,430.642426 
	C414.991058,421.421021 415.003784,412.788666 414.977234,404.156403 
	C414.973267,402.866943 414.784912,401.578064 414.681152,400.280396 
	C390.628876,403.078369 390.628876,403.078369 360.121948,390.652222 
	C360.005066,392.343811 359.931763,393.951447 359.777435,395.551270 
	C358.690247,406.823822 352.355957,414.278931 341.726166,415.709534 
	C336.853271,416.365326 331.724945,416.079346 326.828094,415.394135 
	C317.738892,414.122284 310.639587,408.916962 304.892273,402.656830 
	C283.627716,415.053070 262.131683,410.425598 240.947784,405.711029 
	C240.947784,413.006531 240.947784,420.281555 240.947784,427.325806 
	C253.454300,431.618652 256.234741,435.500916 256.237152,448.007477 
	C256.239868,462.171631 256.244354,476.335785 256.247864,491.499969 
M590.046021,646.534302 
	C596.936340,618.415161 600.299988,589.875366 599.643677,560.935669 
	C599.238647,543.075867 597.088440,525.407288 590.960815,508.466888 
	C583.599670,488.116241 571.531067,472.267487 549.914307,465.367645 
	C532.789062,459.901489 515.301025,456.987335 497.344360,457.503357 
	C487.158752,457.796021 477.084747,459.079712 468.235931,464.956146 
	C464.930084,467.151520 463.341431,469.734131 463.576508,474.032654 
	C464.140167,484.338928 464.112061,494.678619 464.269318,505.005646 
	C464.339539,509.616608 464.281189,514.229492 464.281189,519.594238 
	C482.781342,511.608582 501.149750,510.661316 519.697937,511.202026 
	C537.851624,511.731171 551.330933,519.694092 558.313477,536.864441 
	C560.542969,542.346985 562.105469,548.262512 562.929932,554.126587 
	C566.359131,578.517456 562.554626,602.433716 555.398193,625.564087 
	C545.290466,658.233032 520.917236,673.123718 486.862091,669.023010 
	C480.624817,668.271912 474.490021,666.669617 468.458923,665.489746 
	C468.458923,681.973572 468.458923,698.587280 468.458923,716.013672 
	C476.850586,710.469177 485.423889,710.041016 494.167267,709.804138 
	C507.304382,709.448303 520.432861,708.684387 533.556641,707.945312 
	C556.364075,706.661072 571.848206,694.983276 580.382935,674.080505 
	C583.955200,665.331604 586.750916,656.265625 590.046021,646.534302 
M465.989929,549.503296 
	C466.323395,568.288330 466.625153,587.073914 467.000641,605.858154 
	C467.282898,619.977844 467.574951,634.098877 468.113831,648.209717 
	C468.173676,649.777283 469.562195,652.228394 470.872375,652.668396 
	C483.215271,656.813965 495.789185,659.673523 508.879425,656.542908 
	C529.352966,651.646606 539.994202,637.105347 544.818542,617.976074 
	C547.880798,605.833984 549.205627,593.247314 551.183167,580.839844 
	C553.258606,567.817749 552.268188,554.917603 547.614563,542.637329 
	C543.810181,532.598022 536.428650,525.873474 525.430542,524.028320 
	C510.967804,521.601868 496.660217,523.538452 482.462708,526.149902 
	C468.387634,528.738831 465.990601,531.901306 465.990143,546.007080 
	C465.990112,546.839966 465.990082,547.672913 465.989929,549.503296 
M415.355865,444.597260 
	C414.123352,443.775238 412.944489,442.341644 411.649780,442.228027 
	C401.369507,441.325775 391.072693,440.577942 380.769379,439.984344 
	C375.102417,439.657898 374.060272,440.786652 374.059601,446.550049 
	C374.047455,554.482666 374.047089,662.415283 374.062378,770.347900 
	C374.063171,776.009827 375.659149,777.315247 381.439331,776.744690 
	C390.715576,775.828857 399.985596,774.835754 409.273254,774.053833 
	C417.354492,773.373596 417.999146,772.883118 417.959381,764.770996 
	C417.664551,704.644592 417.450653,644.517517 416.986694,584.392395 
	C416.629425,538.091492 415.945618,491.793091 415.355865,444.597260 
M244.551178,636.500061 
	C244.551300,583.179016 244.551483,529.857910 244.551407,476.536835 
	C244.551392,466.539124 244.607086,456.540802 244.497787,446.544281 
	C244.477905,444.725861 243.781723,442.914856 243.397736,441.100433 
	C242.075714,441.873779 241.873566,442.338562 241.861435,442.808228 
	C240.996979,476.263397 239.583130,509.716095 239.412766,543.175110 
	C239.039459,616.489807 239.297089,689.807739 239.297089,763.124329 
	C239.297089,765.216858 239.297104,767.309387 239.297104,769.641663 
	C233.534729,769.317383 228.611343,769.040283 223.133636,768.731995 
	C223.133636,703.095764 223.133636,637.863525 223.133636,573.482361 
	C215.972885,572.461365 209.510223,571.539917 202.804810,570.583862 
	C202.728653,571.507996 202.555939,572.631165 202.554993,573.754456 
	C202.500717,638.739624 202.488815,703.724792 202.345551,768.709717 
	C202.337418,772.399780 203.616684,773.706726 207.138489,773.925415 
	C216.778229,774.523926 226.400040,775.405212 236.036407,776.065918 
	C244.029907,776.613892 244.547836,776.071594 244.548813,767.970398 
	C244.554062,724.480286 244.550842,680.990234 244.551178,636.500061 
z"/>
<path fill="#FEFEFE" opacity="1.000000" stroke="none" 
	d="
M242.060974,389.068481 
	C240.734131,387.791199 239.535294,386.822754 238.752533,385.590088 
	C236.564438,382.144440 233.801117,380.121490 229.600632,381.609680 
	C225.442200,383.082977 224.580368,386.392609 224.786224,390.438232 
	C225.370331,401.918396 226.169464,413.405579 226.206543,424.892181 
	C226.307617,456.200378 226.564148,487.523865 225.689362,518.811340 
	C225.363205,530.476013 222.095413,542.061768 220.118958,553.674988 
	C219.361801,558.123901 216.592529,558.603577 212.744843,557.486877 
	C206.427856,555.653625 203.168045,552.007507 202.815979,545.384155 
	C202.568604,540.730164 202.658463,536.056763 202.648941,531.391907 
	C202.553619,484.735687 202.485626,438.079437 202.367325,391.423279 
	C202.343369,381.975067 198.871536,379.671082 189.844559,382.655670 
	C187.020462,383.589417 184.053009,384.341339 181.102188,384.586304 
	C175.395309,385.060089 170.492310,383.740112 166.642059,378.711029 
	C157.011780,366.132141 149.063675,352.883514 146.844803,336.831970 
	C144.663345,321.051025 149.555969,307.445679 160.144470,296.028992 
	C170.174500,285.214478 181.298645,275.464630 196.395309,272.588409 
	C201.909134,271.537903 207.791000,272.419250 213.553055,271.864990 
	C206.792145,266.996094 199.377014,264.761932 191.221420,265.017883 
	C183.210510,265.269287 178.218765,258.501495 181.552002,251.174881 
	C185.360321,242.804016 191.604111,236.705795 200.843719,234.433075 
	C207.653656,232.757996 212.355179,235.050507 215.585800,241.185028 
	C216.637848,243.182739 217.842896,245.099854 219.193390,247.424637 
	C223.372421,242.095520 223.489731,236.401596 223.504669,230.786926 
	C223.537048,218.603424 226.736588,214.886627 239.031113,214.739975 
	C244.443756,214.675415 249.992538,215.524979 255.269028,216.818298 
	C265.088776,219.225159 272.187317,224.641891 272.255463,237.582428 
	C277.643860,233.368530 281.741486,230.158020 285.845551,226.955811 
	C293.951355,220.631210 303.302551,218.776321 312.653290,222.250961 
	C317.934723,224.213486 322.843567,228.467545 326.655975,232.801514 
	C332.819366,239.808105 335.283142,248.790756 336.925934,257.900177 
	C337.271790,259.817993 337.776642,261.707123 338.377075,264.353607 
	C339.941376,258.774811 340.922241,253.866440 342.676361,249.251999 
	C353.282898,221.349869 392.024658,211.855576 414.289886,231.587524 
	C422.760803,239.094696 429.190826,248.167648 434.327057,258.151978 
	C436.677582,262.721222 439.614716,265.111023 445.146027,265.231323 
	C453.406219,265.410980 459.469696,270.680145 461.237885,279.735779 
	C462.671570,287.078278 462.460175,294.741974 462.906952,301.225769 
	C454.694336,303.947815 448.053955,306.148743 441.413574,308.349670 
	C441.530457,308.841797 441.647308,309.333923 441.764160,309.826050 
	C446.779236,309.826050 451.838226,309.394440 456.801849,309.899841 
	C479.875366,312.249023 489.987823,334.874207 476.606232,353.912628 
	C472.009888,360.451965 465.458710,362.295746 458.107758,360.598267 
	C453.573792,359.551270 450.115112,360.402679 446.531799,363.107117 
	C439.490631,368.421265 432.366455,373.644440 425.057129,378.580322 
	C408.672119,389.644775 391.690033,390.111603 374.157623,381.214935 
	C379.434265,377.567413 384.456482,374.095734 389.478699,370.624084 
	C389.262634,370.153015 389.046570,369.681976 388.830505,369.210907 
	C387.845306,369.275146 386.817047,369.179932 385.882599,369.432220 
	C382.519775,370.340088 379.222473,371.506012 375.839020,372.318817 
	C366.930267,374.458984 359.000519,373.312653 353.258545,365.216156 
	C352.495117,364.139587 351.486420,363.227020 350.536194,362.294739 
	C347.653809,359.466827 344.312988,358.986938 341.015472,361.207275 
	C337.670319,363.459686 337.356659,366.654297 338.603882,370.470978 
	C340.962280,377.687866 343.618896,384.919617 344.845398,392.360535 
	C345.941528,399.010376 343.198120,401.261963 336.373291,401.696350 
	C323.933960,402.488129 312.930756,393.494629 310.849060,381.135010 
	C310.276062,377.732971 309.132721,374.364471 307.798096,371.169830 
	C306.285797,367.549896 303.344391,365.802734 299.331421,366.785736 
	C295.330292,367.765869 293.491486,370.548309 293.939484,374.557709 
	C294.288177,377.678650 294.865723,380.812805 295.735199,383.827606 
	C297.031769,388.323151 295.576843,391.454681 291.385590,393.058838 
	C288.472412,394.173828 285.348206,395.145355 282.265381,395.339050 
	C268.559418,396.200134 254.955185,395.976227 242.060974,389.068481 
M378.550995,309.983246 
	C378.740967,309.696899 378.930939,309.410553 379.778534,308.913483 
	C394.865051,295.306885 415.386566,308.154785 417.458557,326.599396 
	C422.959717,317.923553 421.515320,306.493408 414.086121,299.911133 
	C405.197784,292.036133 394.513062,291.509949 386.189941,298.973328 
	C383.150177,301.699066 380.883636,305.287201 377.883118,309.036560 
	C377.831665,309.177460 377.708344,309.340363 377.743347,309.454742 
	C377.820679,309.707153 377.977814,309.935150 377.682495,309.755432 
	C377.632324,310.051575 377.582184,310.347687 377.532043,310.643829 
	C377.693634,310.440491 377.855255,310.237183 378.550995,309.983246 
M204.796143,335.931030 
	C211.506073,330.624634 218.912521,327.371490 227.489120,330.189880 
	C240.753296,334.548645 248.013275,344.222473 250.170731,358.868378 
	C253.765823,350.785614 254.281784,343.891052 250.640305,336.774719 
	C249.832870,335.196777 249.830856,332.598175 250.549973,330.944336 
	C256.060059,318.272217 273.073181,315.122131 284.913361,324.416443 
	C286.110443,325.356110 287.285583,326.323700 288.980042,327.688416 
	C288.487793,319.411041 283.204071,313.332306 275.229340,313.020264 
	C269.467163,312.794830 263.257996,313.757477 257.905579,315.862152 
	C251.072983,318.548798 249.223557,325.650238 247.729370,332.473999 
	C229.044861,318.551514 215.479294,319.524933 202.866974,335.726562 
	C202.705704,336.073883 202.544434,336.421234 202.383179,336.768555 
	C202.969543,336.562592 203.555893,336.356628 204.796143,335.931030 
M368.356812,259.809601 
	C365.875946,264.007355 363.395111,268.205109 360.914246,272.402863 
	C361.312286,272.763123 361.710297,273.123383 362.108337,273.483612 
	C366.679993,267.379028 371.957306,262.864380 380.125671,264.463959 
	C387.596893,265.927063 392.931976,270.186432 396.790070,278.066284 
	C397.337219,269.213867 396.101044,262.251801 388.911652,258.382751 
	C382.303253,254.826385 375.314911,253.862076 368.356812,259.809601 
M265.731476,250.877991 
	C264.129150,252.698059 262.526855,254.518127 260.924530,256.338196 
	C261.116150,256.714172 261.307739,257.090179 261.499359,257.466156 
	C267.908936,253.133667 273.626465,253.780441 278.778381,260.001099 
	C277.665436,251.624237 274.240021,249.195190 265.731476,250.877991 
z"/>
<path fill="#F9EFCB" opacity="1.000000" stroke="none" 
	d="
M452.301392,630.841797 
	C452.811707,678.479004 453.351440,725.635132 453.775208,772.792175 
	C453.836517,779.616150 453.310486,786.444214 453.110687,793.271973 
	C452.794647,804.071411 447.950439,812.376221 439.201874,818.486938 
	C427.163849,826.895325 413.275818,830.341919 399.165466,832.962097 
	C370.549255,838.275940 341.582672,839.691772 312.582275,839.190979 
	C284.458435,838.705322 256.286774,837.941895 228.269745,835.660034 
	C215.055222,834.583679 201.810684,830.651550 189.193390,826.253174 
	C171.997360,820.258606 164.028442,806.692139 164.164566,788.702454 
	C164.372589,761.208618 164.860291,733.715271 165.439087,706.226135 
	C166.547577,653.579651 167.763748,600.935425 169.010147,548.291992 
	C170.153992,499.980438 171.394821,451.671265 172.603897,403.361298 
	C172.636765,402.047668 172.795319,400.737152 172.916534,399.145966 
	C177.805954,399.145966 182.582275,399.145966 187.953278,399.145966 
	C187.953278,400.990784 187.953613,402.938080 187.953217,404.885376 
	C187.927765,530.538269 187.973465,656.191345 187.735626,781.843872 
	C187.717468,791.437988 191.650452,797.637939 199.459030,802.143555 
	C211.980560,809.368591 225.881897,812.145447 239.918213,813.927307 
	C285.899261,819.764526 331.999603,820.070557 378.007324,814.670044 
	C390.267914,813.230835 402.313293,809.363281 414.221649,805.818420 
	C418.832825,804.445740 423.111816,801.281250 426.970184,798.213684 
	C432.810394,793.570312 434.836060,787.373718 434.306976,779.643921 
	C433.443298,767.026611 433.586731,754.335693 433.445068,741.674255 
	C432.160156,626.862122 430.889648,512.049805 429.771973,397.235992 
	C429.752350,395.216797 431.191254,392.594086 432.790497,391.264038 
	C436.852356,387.885864 441.392426,385.082672 446.807037,381.305725 
	C448.650116,464.971191 450.471832,547.666077 452.301392,630.841797 
z"/>
<path fill="#FB9D01" opacity="1.000000" stroke="none" 
	d="
M256.247955,490.999939 
	C256.244354,476.335785 256.239868,462.171631 256.237152,448.007477 
	C256.234741,435.500916 253.454300,431.618652 240.947784,427.325806 
	C240.947784,420.281555 240.947784,413.006531 240.947784,405.711029 
	C262.131683,410.425598 283.627716,415.053070 304.892273,402.656830 
	C310.639587,408.916962 317.738892,414.122284 326.828094,415.394135 
	C331.724945,416.079346 336.853271,416.365326 341.726166,415.709534 
	C352.355957,414.278931 358.690247,406.823822 359.777435,395.551270 
	C359.931763,393.951447 360.005066,392.343811 360.121948,390.652222 
	C390.628876,403.078369 390.628876,403.078369 414.681152,400.280396 
	C414.784912,401.578064 414.973267,402.866943 414.977234,404.156403 
	C415.003784,412.788666 414.991058,421.421021 414.991058,430.642426 
	C405.277344,429.914795 395.887207,429.202972 386.495483,428.513000 
	C383.673065,428.305634 380.841217,427.954498 378.022339,428.023651 
	C370.167969,428.216248 363.697968,433.985321 362.604340,441.762909 
	C362.258453,444.222534 362.309906,446.748871 362.309540,449.244659 
	C362.292938,556.225647 362.285797,663.206604 362.294128,770.187561 
	C362.295135,783.062195 369.559937,789.554993 382.197205,788.304871 
	C394.244598,787.113220 406.310425,786.107849 418.368164,785.020508 
	C418.597748,785.468628 418.827362,785.916687 419.056946,786.364746 
	C415.148865,788.557861 411.428680,791.226562 407.298889,792.858643 
	C392.424713,798.737122 376.675873,800.635681 360.899994,801.877808 
	C324.947510,804.708435 288.955719,804.709412 253.108353,800.734192 
	C239.961136,799.276245 227.000351,795.837769 214.087097,792.748596 
	C210.109207,791.796997 206.570282,789.010193 202.830353,787.063660 
	C202.996597,786.519836 203.162827,785.976074 203.329071,785.432251 
	C207.977905,785.761475 212.629242,786.059021 217.274963,786.427490 
	C223.748917,786.940796 230.209488,787.694763 236.692108,788.011902 
	C249.914978,788.658630 256.184052,782.601013 256.187286,769.450989 
	C256.210114,676.800659 256.228241,584.150330 256.247955,490.999939 
M341.244202,635.500000 
	C341.218597,572.355713 341.200012,509.211395 341.161133,446.067108 
	C341.153778,434.139648 334.946777,427.994690 322.945251,427.969727 
	C312.282532,427.947571 301.619385,427.913208 290.957062,427.981537 
	C280.708221,428.047211 273.967010,434.634552 273.963562,444.840240 
	C273.927094,552.802246 273.931091,660.764282 273.965790,768.726318 
	C273.968903,778.431702 280.477692,785.024902 290.220978,785.189819 
	C300.880951,785.370239 311.545502,785.293884 322.208069,785.298401 
	C335.199860,785.303833 341.155945,779.381470 341.165344,766.454285 
	C341.196869,723.136169 341.218353,679.818115 341.244202,635.500000 
z"/>
<path fill="#F8EECA" opacity="1.000000" stroke="none" 
	d="
M589.972900,646.939026 
	C586.750916,656.265625 583.955200,665.331604 580.382935,674.080505 
	C571.848206,694.983276 556.364075,706.661072 533.556641,707.945312 
	C520.432861,708.684387 507.304382,709.448303 494.167267,709.804138 
	C485.423889,710.041016 476.850586,710.469177 468.458923,716.013672 
	C468.458923,698.587280 468.458923,681.973572 468.458923,665.489746 
	C474.490021,666.669617 480.624817,668.271912 486.862091,669.023010 
	C520.917236,673.123718 545.290466,658.233032 555.398193,625.564087 
	C562.554626,602.433716 566.359131,578.517456 562.929932,554.126587 
	C562.105469,548.262512 560.542969,542.346985 558.313477,536.864441 
	C551.330933,519.694092 537.851624,511.731171 519.697937,511.202026 
	C501.149750,510.661316 482.781342,511.608582 464.281189,519.594238 
	C464.281189,514.229492 464.339539,509.616608 464.269318,505.005646 
	C464.112061,494.678619 464.140167,484.338928 463.576508,474.032654 
	C463.341431,469.734131 464.930084,467.151520 468.235931,464.956146 
	C477.084747,459.079712 487.158752,457.796021 497.344360,457.503357 
	C515.301025,456.987335 532.789062,459.901489 549.914307,465.367645 
	C571.531067,472.267487 583.599670,488.116241 590.960815,508.466888 
	C597.088440,525.407288 599.238647,543.075867 599.643677,560.935669 
	C600.299988,589.875366 596.936340,618.415161 589.972900,646.939026 
M534.972961,677.559814 
	C545.841919,670.348450 552.450500,660.314392 551.592712,652.508362 
	C529.952759,676.075623 503.535980,680.359253 473.718292,671.237976 
	C473.563721,672.091003 473.365540,672.706177 473.355316,673.324463 
	C473.311066,675.990234 472.978363,678.720398 473.454987,681.296814 
	C473.699799,682.619995 475.275665,684.497681 476.503143,684.718628 
	C496.441376,688.307556 515.956177,687.781189 534.972961,677.559814 
M562.570557,689.095398 
	C570.347351,680.933411 576.381958,671.858276 577.913757,660.334778 
	C576.072021,661.182983 574.733948,662.354980 573.805237,663.791626 
	C563.609741,679.563660 548.990784,689.591003 531.067383,693.649902 
	C515.390503,697.200073 499.219025,698.553040 483.282227,700.982910 
	C481.042084,701.324463 478.894043,702.270142 476.703339,702.936218 
	C493.332367,705.565674 509.619446,704.985291 525.811035,702.589722 
	C538.704895,700.682007 551.376038,697.852783 562.570557,689.095398 
M583.991577,568.457886 
	C582.700684,590.265137 581.409729,612.072388 580.040894,635.196106 
	C593.641052,619.138733 596.899658,558.417542 585.674805,540.046265 
	C585.095825,549.658630 584.558472,558.580688 583.991577,568.457886 
M519.824036,471.596222 
	C524.466309,471.932770 529.113953,472.208588 533.749268,472.623077 
	C538.321594,473.031921 542.881409,473.581024 547.446716,474.068604 
	C524.427612,463.611694 500.894104,460.862854 476.602570,468.221222 
	C472.797089,469.373932 472.918243,471.731476 473.428406,473.642975 
	C488.840302,472.922974 503.866974,472.220978 519.824036,471.596222 
M473.427094,504.901520 
	C474.473389,505.294189 475.547211,506.087128 476.561707,506.017395 
	C486.278900,505.348938 495.977081,504.126007 505.699463,503.911102 
	C511.820679,503.775757 517.973877,505.087677 524.112732,505.750336 
	C508.333099,494.943909 491.211975,495.850311 473.402008,499.363068 
	C473.402008,501.175293 473.402008,502.641724 473.427094,504.901520 
z"/>
<path fill="#000000" opacity="1.000000" stroke="none" 
	d="
M465.989990,549.004517 
	C465.990082,547.672913 465.990112,546.839966 465.990143,546.007080 
	C465.990601,531.901306 468.387634,528.738831 482.462708,526.149902 
	C496.660217,523.538452 510.967804,521.601868 525.430542,524.028320 
	C536.428650,525.873474 543.810181,532.598022 547.614563,542.637329 
	C552.268188,554.917603 553.258606,567.817749 551.183167,580.839844 
	C549.205627,593.247314 547.880798,605.833984 544.818542,617.976074 
	C539.994202,637.105347 529.352966,651.646606 508.879425,656.542908 
	C495.789185,659.673523 483.215271,656.813965 470.872375,652.668396 
	C469.562195,652.228394 468.173676,649.777283 468.113831,648.209717 
	C467.574951,634.098877 467.282898,619.977844 467.000641,605.858154 
	C466.625153,587.073914 466.323395,568.288330 465.989990,549.004517 
z"/>
<path fill="#FC9D01" opacity="1.000000" stroke="none" 
	d="
M415.381409,445.045410 
	C415.945618,491.793091 416.629425,538.091492 416.986694,584.392395 
	C417.450653,644.517517 417.664551,704.644592 417.959381,764.770996 
	C417.999146,772.883118 417.354492,773.373596 409.273254,774.053833 
	C399.985596,774.835754 390.715576,775.828857 381.439331,776.744690 
	C375.659149,777.315247 374.063171,776.009827 374.062378,770.347900 
	C374.047089,662.415283 374.047455,554.482666 374.059601,446.550049 
	C374.060272,440.786652 375.102417,439.657898 380.769379,439.984344 
	C391.072693,440.577942 401.369507,441.325775 411.649780,442.228027 
	C412.944489,442.341644 414.123352,443.775238 415.381409,445.045410 
M379.258270,583.500000 
	C379.258270,645.569519 379.258270,707.639099 379.258270,770.258179 
	C383.744080,769.863647 387.490143,769.534119 391.467041,769.184265 
	C391.467041,661.641052 391.467041,554.613770 391.467041,447.153107 
	C387.569458,446.662079 383.853058,446.193848 379.259064,445.615051 
	C379.259064,491.670135 379.259064,537.085083 379.258270,583.500000 
M407.082825,522.500000 
	C407.082825,604.249390 407.082825,685.998779 407.082825,767.552368 
	C412.921875,769.131836 412.094025,765.456421 412.094238,762.531189 
	C412.100037,680.890686 412.098938,599.250183 412.098938,517.609680 
	C412.098938,496.283173 412.058929,474.956543 412.138947,453.630341 
	C412.151764,450.211029 411.608643,448.038605 407.083099,449.619629 
	C407.083099,473.576874 407.083099,497.538422 407.082825,522.500000 
z"/>
<path fill="#FA9C01" opacity="1.000000" stroke="none" 
	d="
M244.550873,637.000122 
	C244.550842,680.990234 244.554062,724.480286 244.548813,767.970398 
	C244.547836,776.071594 244.029907,776.613892 236.036407,776.065918 
	C226.400040,775.405212 216.778229,774.523926 207.138489,773.925415 
	C203.616684,773.706726 202.337418,772.399780 202.345551,768.709717 
	C202.488815,703.724792 202.500717,638.739624 202.554993,573.754456 
	C202.555939,572.631165 202.728653,571.507996 202.804810,570.583862 
	C209.510223,571.539917 215.972885,572.461365 223.133636,573.482361 
	C223.133636,637.863525 223.133636,703.095764 223.133636,768.731995 
	C228.611343,769.040283 233.534729,769.317383 239.297104,769.641663 
	C239.297104,767.309387 239.297089,765.216858 239.297089,763.124329 
	C239.297089,689.807739 239.039459,616.489807 239.412766,543.175110 
	C239.583130,509.716095 240.996979,476.263397 241.861435,442.808228 
	C241.873566,442.338562 242.075714,441.873779 243.397736,441.100433 
	C243.781723,442.914856 244.477905,444.725861 244.497787,446.544281 
	C244.607086,456.540802 244.551392,466.539124 244.551407,476.536835 
	C244.551483,529.857910 244.551300,583.179016 244.550873,637.000122 
z"/>
<path fill="#483C33" opacity="1.000000" stroke="none" 
	d="
M203.328812,335.348389 
	C215.479294,319.524933 229.044861,318.551514 247.729370,332.473999 
	C249.223557,325.650238 251.072983,318.548798 257.905579,315.862152 
	C263.257996,313.757477 269.467163,312.794830 275.229340,313.020264 
	C283.204071,313.332306 288.487793,319.411041 288.980042,327.688416 
	C287.285583,326.323700 286.110443,325.356110 284.913361,324.416443 
	C273.073181,315.122131 256.060059,318.272217 250.549973,330.944336 
	C249.830856,332.598175 249.832870,335.196777 250.640305,336.774719 
	C254.281784,343.891052 253.765823,350.785614 250.170731,358.868378 
	C248.013275,344.222473 240.753296,334.548645 227.489120,330.189880 
	C218.912521,327.371490 211.506073,330.624634 204.268158,335.837891 
	C203.603058,335.612640 203.465942,335.480499 203.328812,335.348389 
z"/>
<path fill="#473C32" opacity="1.000000" stroke="none" 
	d="
M378.264374,308.481903 
	C380.883636,305.287201 383.150177,301.699066 386.189941,298.973328 
	C394.513062,291.509949 405.197784,292.036133 414.086121,299.911133 
	C421.515320,306.493408 422.959717,317.923553 417.458557,326.599396 
	C415.386566,308.154785 394.865051,295.306885 379.240479,308.851715 
	C378.556396,308.687256 378.410400,308.584595 378.264374,308.481903 
z"/>
<path fill="#473B32" opacity="1.000000" stroke="none" 
	d="
M368.616394,259.553406 
	C375.314911,253.862076 382.303253,254.826385 388.911652,258.382751 
	C396.101044,262.251801 397.337219,269.213867 396.790070,278.066284 
	C392.931976,270.186432 387.596893,265.927063 380.125671,264.463959 
	C371.957306,262.864380 366.679993,267.379028 362.108337,273.483612 
	C361.710297,273.123383 361.312286,272.763123 360.914246,272.402863 
	C363.395111,268.205109 365.875946,264.007355 368.616394,259.553406 
z"/>
<path fill="#51473E" opacity="1.000000" stroke="none" 
	d="
M266.088989,250.718826 
	C274.240021,249.195190 277.665436,251.624237 278.778381,260.001099 
	C273.626465,253.780441 267.908936,253.133667 261.499359,257.466156 
	C261.307739,257.090179 261.116150,256.714172 260.924530,256.338196 
	C262.526855,254.518127 264.129150,252.698059 266.088989,250.718826 
z"/>
<path fill="#483C33" opacity="1.000000" stroke="none" 
	d="
M203.941223,335.947723 
	C203.555893,336.356628 202.969543,336.562592 202.383179,336.768555 
	C202.544434,336.421234 202.705704,336.073883 203.097900,335.537476 
	C203.465942,335.480499 203.603058,335.612640 203.941223,335.947723 
z"/>
<path fill="#473C32" opacity="1.000000" stroke="none" 
	d="
M378.911652,308.957092 
	C378.930939,309.410553 378.740967,309.696899 378.307861,310.041779 
	C378.064728,310.100311 378.102356,310.173096 378.102356,310.173096 
	C377.977814,309.935150 377.820679,309.707153 377.743347,309.454742 
	C377.708344,309.340363 377.831665,309.177460 378.073730,308.759216 
	C378.410400,308.584595 378.556396,308.687256 378.911652,308.957092 
z"/>
<path fill="#473C32" opacity="1.000000" stroke="none" 
	d="
M378.040771,310.067078 
	C377.855255,310.237183 377.693634,310.440491 377.532043,310.643829 
	C377.582184,310.347687 377.632324,310.051575 377.892426,309.964264 
	C378.102356,310.173096 378.064728,310.100311 378.040771,310.067078 
z"/>
<path fill="#433629" opacity="1.000000" stroke="none" 
	d="
M341.243958,636.000000 
	C341.218353,679.818115 341.196869,723.136169 341.165344,766.454285 
	C341.155945,779.381470 335.199860,785.303833 322.208069,785.298401 
	C311.545502,785.293884 300.880951,785.370239 290.220978,785.189819 
	C280.477692,785.024902 273.968903,778.431702 273.965790,768.726318 
	C273.931091,660.764282 273.927094,552.802246 273.963562,444.840240 
	C273.967010,434.634552 280.708221,428.047211 290.957062,427.981537 
	C301.619385,427.913208 312.282532,427.947571 322.945251,427.969727 
	C334.946777,427.994690 341.153778,434.139648 341.161133,446.067108 
	C341.200012,509.211395 341.218597,572.355713 341.243958,636.000000 
M329.696259,604.500000 
	C329.652954,552.188965 329.614563,499.877960 329.560577,447.566956 
	C329.553406,440.614746 328.716095,439.773987 321.815002,439.764465 
	C312.153107,439.751129 302.490845,439.757568 292.829285,439.826721 
	C286.429138,439.872498 285.755493,440.585480 285.752045,447.136292 
	C285.736572,476.457184 285.738525,505.778046 285.745728,535.098938 
	C285.764526,611.566467 285.785736,688.033997 285.816650,764.501526 
	C285.820251,773.442566 286.019470,773.641174 295.152374,773.691284 
	C303.647980,773.737915 312.144043,773.719543 320.639862,773.702454 
	C328.796875,773.686035 329.564056,772.935913 329.571075,764.932251 
	C329.617798,711.788147 329.655640,658.644104 329.696259,604.500000 
z"/>
<path fill="#463A2F" opacity="1.000000" stroke="none" 
	d="
M534.658691,677.749634 
	C515.956177,687.781189 496.441376,688.307556 476.503143,684.718628 
	C475.275665,684.497681 473.699799,682.619995 473.454987,681.296814 
	C472.978363,678.720398 473.311066,675.990234 473.355316,673.324463 
	C473.365540,672.706177 473.563721,672.091003 473.718292,671.237976 
	C503.535980,680.359253 529.952759,676.075623 551.592712,652.508362 
	C552.450500,660.314392 545.841919,670.348450 534.658691,677.749634 
z"/>
<path fill="#483C31" opacity="1.000000" stroke="none" 
	d="
M562.296936,689.327881 
	C551.376038,697.852783 538.704895,700.682007 525.811035,702.589722 
	C509.619446,704.985291 493.332367,705.565674 476.703339,702.936218 
	C478.894043,702.270142 481.042084,701.324463 483.282227,700.982910 
	C499.219025,698.553040 515.390503,697.200073 531.067383,693.649902 
	C548.990784,689.591003 563.609741,679.563660 573.805237,663.791626 
	C574.733948,662.354980 576.072021,661.182983 577.913757,660.334778 
	C576.381958,671.858276 570.347351,680.933411 562.296936,689.327881 
z"/>
<path fill="#473B30" opacity="1.000000" stroke="none" 
	d="
M584.006348,567.980347 
	C584.558472,558.580688 585.095825,549.658630 585.674805,540.046265 
	C596.899658,558.417542 593.641052,619.138733 580.040894,635.196106 
	C581.409729,612.072388 582.700684,590.265137 584.006348,567.980347 
z"/>
<path fill="#493D31" opacity="1.000000" stroke="none" 
	d="
M519.358826,471.557617 
	C503.866974,472.220978 488.840302,472.922974 473.428406,473.642975 
	C472.918243,471.731476 472.797089,469.373932 476.602570,468.221222 
	C500.894104,460.862854 524.427612,463.611694 547.446716,474.068604 
	C542.881409,473.581024 538.321594,473.031921 533.749268,472.623077 
	C529.113953,472.208588 524.466309,471.932770 519.358826,471.557617 
z"/>
<path fill="#4B4034" opacity="1.000000" stroke="none" 
	d="
M473.414551,504.504822 
	C473.402008,502.641724 473.402008,501.175293 473.402008,499.363068 
	C491.211975,495.850311 508.333099,494.943909 524.112732,505.750336 
	C517.973877,505.087677 511.820679,503.775757 505.699463,503.911102 
	C495.977081,504.126007 486.278900,505.348938 476.561707,506.017395 
	C475.547211,506.087128 474.473389,505.294189 473.414551,504.504822 
z"/>
<path fill="#4C3B27" opacity="1.000000" stroke="none" 
	d="
M379.258667,583.000000 
	C379.259064,537.085083 379.259064,491.670135 379.259064,445.615051 
	C383.853058,446.193848 387.569458,446.662079 391.467041,447.153107 
	C391.467041,554.613770 391.467041,661.641052 391.467041,769.184265 
	C387.490143,769.534119 383.744080,769.863647 379.258270,770.258179 
	C379.258270,707.639099 379.258270,645.569519 379.258667,583.000000 
z"/>
<path fill="#463729" opacity="1.000000" stroke="none" 
	d="
M407.082947,522.000000 
	C407.083099,497.538422 407.083099,473.576874 407.083099,449.619629 
	C411.608643,448.038605 412.151764,450.211029 412.138947,453.630341 
	C412.058929,474.956543 412.098938,496.283173 412.098938,517.609680 
	C412.098938,599.250183 412.100037,680.890686 412.094238,762.531189 
	C412.094025,765.456421 412.921875,769.131836 407.082825,767.552368 
	C407.082825,685.998779 407.082825,604.249390 407.082947,522.000000 
z"/>
<path fill="#F99C01" opacity="1.000000" stroke="none" 
	d="
M329.696320,605.000000 
	C329.655640,658.644104 329.617798,711.788147 329.571075,764.932251 
	C329.564056,772.935913 328.796875,773.686035 320.639862,773.702454 
	C312.144043,773.719543 303.647980,773.737915 295.152374,773.691284 
	C286.019470,773.641174 285.820251,773.442566 285.816650,764.501526 
	C285.785736,688.033997 285.764526,611.566467 285.745728,535.098938 
	C285.738525,505.778046 285.736572,476.457184 285.752045,447.136292 
	C285.755493,440.585480 286.429138,439.872498 292.829285,439.826721 
	C302.490845,439.757568 312.153107,439.751129 321.815002,439.764465 
	C328.716095,439.773987 329.553406,440.614746 329.560577,447.566956 
	C329.614563,499.877960 329.652954,552.188965 329.696320,605.000000 
M306.962006,589.500000 
	C306.962006,541.741394 306.962006,493.982849 306.962006,446.030762 
	C301.389435,446.030762 296.360443,446.030762 291.289673,446.030762 
	C291.289673,553.418884 291.289673,660.408508 291.289673,767.560486 
	C296.606781,767.560486 301.516663,767.560486 306.961975,767.560486 
	C306.961975,708.339478 306.961975,649.419739 306.962006,589.500000 
M310.293732,504.499969 
	C310.293732,592.202576 310.293732,679.905212 310.293732,768.074158 
	C312.608337,767.824951 313.984772,767.676758 315.725708,767.489258 
	C315.725708,765.110291 315.725708,763.133118 315.725708,761.156006 
	C315.725708,706.511597 315.725708,651.867188 315.725708,597.222778 
	C315.725708,548.909119 315.757233,500.595398 315.629517,452.282074 
	C315.623352,449.950500 317.684601,445.653076 313.137787,445.591156 
	C308.040314,445.521729 310.448303,450.128998 310.415924,452.522339 
	C310.186188,469.512299 310.293976,486.506866 310.293732,504.499969 
z"/>
<path fill="#41342A" opacity="1.000000" stroke="none" 
	d="
M306.961975,590.000000 
	C306.961975,649.419739 306.961975,708.339478 306.961975,767.560486 
	C301.516663,767.560486 296.606781,767.560486 291.289673,767.560486 
	C291.289673,660.408508 291.289673,553.418884 291.289673,446.030762 
	C296.360443,446.030762 301.389435,446.030762 306.962006,446.030762 
	C306.962006,493.982849 306.962006,541.741394 306.961975,590.000000 
z"/>
<path fill="#5F4523" opacity="1.000000" stroke="none" 
	d="
M310.293976,503.999939 
	C310.293976,486.506866 310.186188,469.512299 310.415924,452.522339 
	C310.448303,450.128998 308.040314,445.521729 313.137787,445.591156 
	C317.684601,445.653076 315.623352,449.950500 315.629517,452.282074 
	C315.757233,500.595398 315.725708,548.909119 315.725708,597.222778 
	C315.725708,651.867188 315.725708,706.511597 315.725708,761.156006 
	C315.725708,763.133118 315.725708,765.110291 315.725708,767.489258 
	C313.984772,767.676758 312.608337,767.824951 310.293732,768.074158 
	C310.293732,679.905212 310.293732,592.202576 310.293976,503.999939 
z"/>
</svg>